<?xml version="1.0" standalone="no"?>
<!DOCTYPE svg PUBLIC "-//W3C//DTD SVG 20010904//EN"
 "http://www.w3.org/TR/2001/REC-SVG-20010904/DTD/svg10.dtd">
<svg version="1.0" xmlns="http://www.w3.org/2000/svg"
 width="618.000000pt" height="618.000000pt" viewBox="0 0 618.000000 618.000000"
 preserveAspectRatio="xMidYMid meet">
<metadata>
Created by potrace 1.11, written by Peter Selinger 2001-2013
</metadata>
<g transform="translate(0.000000,618.000000) scale(0.100000,-0.100000)"
fill="#000000" stroke="none">
<path d="M3050 5311 c-81 -26 -148 -84 -186 -161 -27 -53 -31 -85 -34 -247 0
-10 -91 -12 -397 -12 -219 0 -414 -3 -434 -5 -264 -34 -520 -223 -634 -469
-61 -133 -75 -210 -77 -427 -1 -82 -5 -150 -9 -150 -4 0 -20 5 -34 10 -44 17
-130 14 -185 -6 -87 -31 -160 -107 -189 -196 -19 -58 -16 -811 3 -866 43 -121
146 -198 276 -207 23 -1 81 9 122 21 15 4 17 -6 16 -103 -1 -270 4 -494 14
-534 5 -24 12 -55 14 -69 3 -14 20 -59 37 -100 84 -193 229 -342 421 -430 59
-26 100 -39 221 -66 31 -8 2134 -7 2185 1 203 28 401 140 524 294 46 58 99
137 102 151 0 3 11 28 23 55 19 43 33 89 57 200 3 11 5 152 6 313 0 160 2 292
4 292 1 0 15 -5 31 -11 15 -6 58 -11 94 -11 134 -1 246 83 289 215 8 26 12
151 12 427 0 440 -2 453 -75 536 -50 57 -94 83 -169 98 -64 13 -150 5 -175
-16 -10 -8 -13 25 -13 153 0 90 -3 180 -6 199 -44 273 -213 502 -457 620 -158
76 -208 82 -670 84 l-321 1 -3 91 c-1 50 -10 110 -18 134 -30 85 -101 156
-184 184 -42 15 -144 19 -181 7z"/>
</g>
</svg>
